<?xml version="1.0" encoding="UTF-8"?>
<svg id="Layer_1" data-name="Layer 1" xmlns="http://www.w3.org/2000/svg" viewBox="0 0 478.19 135.89">
  <defs>
    <style>
      .cls-1 {
        fill: #F5F2EC;
      }
    </style>
  </defs>
  <path class="cls-1" d="M132.39,3.52h27.58s0,47.01,0,47.01c3.7-7.96,13.69-13.33,26.09-13.33,22.21,0,34.61,14.62,34.61,38.68v56.63s-27.57,0-27.57,0v-53.3c0-10.73-5.56-17.58-15.92-17.58-9.99,0-17.21,7.59-17.21,18.51v52.38s-27.57,0-27.57,0V3.52Z"/>
  <path class="cls-1" d="M238.62,39.24h27.58s0,93.27,0,93.27h-27.58s0-93.27,0-93.27Z"/>
  <path class="cls-1" d="M401.86,64.21h-15.36s0-24.98,0-24.98h15.36s0-2.59,0-2.59c0-15.36,3.7-23.13,10.92-28.87,7.77-6.48,17.58-6.85,25.72-6.85,3.89,0,8.88.55,11.1.92v22.95c-2.4-.93-5.55-.92-8.33-.92-8.7,0-12.77,3.15-12.77,11.11v4.26s18.69,0,18.69,0v24.98s-18.69,0-18.69,0v68.29s-26.65,0-26.65,0v-68.29Z"/>
  <path class="cls-1" d="M66.18,133.94c-16.95,0-33.91-6.45-46.82-19.36-25.81-25.81-25.82-67.81,0-93.63,25.81-25.81,67.82-25.82,93.63,0,2.47,2.47,4.78,5.18,6.86,8.06l-22.27,16.12c-1.23-1.7-2.59-3.29-4.03-4.74-15.1-15.09-39.66-15.09-54.75,0-15.1,15.1-15.09,39.66,0,54.75,15.1,15.1,39.66,15.1,54.75,0,1.45-1.45,2.8-3.04,4.03-4.74l22.27,16.12c-2.08,2.87-4.39,5.59-6.86,8.06-12.91,12.91-29.86,19.36-46.82,19.36Z"/>
  <circle class="cls-1" cx="460.52" cy="118.21" r="17.67"/>
  <circle class="cls-1" cx="252.32" cy="15.64" r="15.64"/>
  <path class="cls-1" d="M370.83,57.06l.02-.02c-.12-.17-.27-.33-.39-.5-.53-.71-1.07-1.4-1.63-2.08-.37-.45-.75-.88-1.14-1.31-.33-.37-.66-.73-1-1.09-.32-.34-.62-.7-.95-1.02-3.96-3.96-8.45-7.1-13.22-9.43-.14-.07-.28-.14-.42-.21-.47-.22-.94-.43-1.42-.64-.31-.14-.63-.28-.94-.41-.31-.13-.62-.25-.93-.37-.49-.19-.98-.38-1.48-.56-.14-.05-.27-.09-.41-.14-5.03-1.74-10.43-2.69-16.04-2.69v.02c-12.63,0-25.26,4.81-34.87,14.42-19.23,19.23-19.23,50.52,0,69.74,9.62,9.61,22.24,14.42,34.87,14.42,12.63,0,25.26-4.81,34.87-14.42,1.84-1.84,3.56-3.86,5.11-6l-19.09-13.81c-.82,1.13-1.72,2.19-2.68,3.16-10.04,10.04-26.38,10.04-36.42,0-3.24-3.24-5.42-7.14-6.57-11.28h66.39s7.7,0,7.7,0v-6.93c0-10.77-3.48-20.73-9.36-28.85ZM335.78,60.64s.01,0,.02,0c.65.13,1.29.3,1.93.47.18.05.37.09.55.14.5.15.99.34,1.48.52.32.12.64.22.95.35.35.15.7.32,1.04.48.43.2.87.4,1.29.62.21.11.41.25.62.37.53.31,1.07.62,1.58.96.05.04.1.08.16.11,1.99,1.36,3.78,3,5.32,4.85.03.03.05.06.07.1,1.38,1.69,2.53,3.56,3.46,5.56h-46.75c1.24-2.7,2.94-5.24,5.16-7.47,6.27-6.27,15-8.63,23.12-7.06Z"/>
</svg>